<svg xmlns:xlink="http://www.w3.org/1999/xlink" xmlns="http://www.w3.org/2000/svg" viewBox="0 0 370 116.85406825940932" preserveAspectRatio="xMidYMid meet" class="css-18azjue" id="decgebgh" width="110"  height="34.740398671716285" ><defs id="SvgjsDefs1014"><linearGradient id="SvgjsLinearGradient1019"><stop id="SvgjsStop1020" stop-color="#006838" offset="0"></stop><stop id="SvgjsStop1021" stop-color="#96cf24" offset="1"></stop></linearGradient><linearGradient id="SvgjsLinearGradient1019"><stop id="SvgjsStop1020" stop-color="#006838" offset="0"></stop><stop id="SvgjsStop1021" stop-color="#96cf24" offset="1"></stop></linearGradient><linearGradient id="SvgjsLinearGradient1019"><stop id="SvgjsStop1020" stop-color="#006838" offset="0"></stop><stop id="SvgjsStop1021" stop-color="#96cf24" offset="1"></stop></linearGradient></defs><g id="SvgjsG1015" featurekey="symbolFeature-0" transform="matrix(1.2983641178722685,0,0,1.2983641178722685,-14.916904528058728,-6.4918205893613425)" fill="#04A118"><symbol xmlns="http://www.w3.org/2000/svg" viewBox="-3.187 -3.188 6.375 6.375" fill="#04A118"><path fill="#04A118" d="M-3.187,0c0-1.76,1.427-3.188,3.188-3.188S3.188-1.761,3.188,0S1.76,3.187,0,3.187S-3.187,1.76-3.187,0z"></path><path fill="#04A118" d="M-1.992,0.127c0-1.096,0.884-1.988,1.981-1.988c0.045,0,0.098,0,0.144,0.008V2.1   C0.087,2.107,0.034,2.107-0.011,2.107C-1.107,2.107-1.992,1.223-1.992,0.127z"></path></symbol><g xmlns="http://www.w3.org/2000/svg" display="none" fill="#04A118"><rect x="-974.25" y="-136.25" display="inline" fill="#04A118" width="1201" height="360"></rect></g><g xmlns="http://www.w3.org/2000/svg" fill="#04A118"><path fill="#04A118" d="M62.551,43.989c-0.114-0.207-0.235-0.412-0.36-0.615l-0.493,0.615H62.551z"></path><path d="M81.463,43.989H64.538c-0.339-0.708-0.733-1.399-1.178-2.073l7.268-9.066c1.036-1.293,1.506-2.916,1.324-4.571   c-0.183-1.656-0.995-3.139-2.286-4.174c-2.256-1.809-5.396-1.779-7.613-0.122c-3.652-0.562-6.473,0.122-8.459,2.059   c1.839-3.322,4.2-6.657,7.082-10.006c-4.145-0.11-7.055,0.343-8.729,1.359c-0.027-1.537,0.316-3.678,1.029-6.424   C53.441,9.214,54.059,7.224,54.827,5c-4.063,1.784-6.986,3.774-8.771,5.971c-0.395,0.5-0.736,1.027-1.029,1.577   c-0.294-0.55-0.635-1.077-1.029-1.577C42.214,8.774,39.29,6.784,35.227,5c0.769,2.224,1.386,4.214,1.853,5.971   c0.714,2.745,1.057,4.886,1.029,6.424c-1.675-1.016-4.584-1.469-8.729-1.359c2.882,3.349,5.243,6.684,7.082,10.006   c-2.251-2.196-5.573-2.786-9.965-1.771c4.353,3.026,7.476,6.35,9.39,9.967c-2.052,0.917-3.983,2.145-5.739,3.705   c-2.027,1.816-3.557,3.838-4.596,6.046h-7.016c-3.886,0-7.047,3.161-7.047,7.047v0.656c0,2.891,1.751,5.436,4.366,6.509   l3.734,33.144c0.231,2.05,2.103,3.656,4.26,3.656H76.15c2.158,0,4.029-1.606,4.26-3.656L84.143,58.2   c2.615-1.073,4.366-3.618,4.366-6.509v-0.656C88.509,47.15,85.348,43.989,81.463,43.989z M62.623,26.433   c0.67-0.837,1.632-1.363,2.709-1.482c0.152-0.016,0.303-0.025,0.454-0.025c0.915,0,1.793,0.305,2.512,0.881   c1.737,1.392,2.018,3.938,0.625,5.675L52.26,52.27c-0.67,0.837-1.632,1.363-2.709,1.482c-1.072,0.115-2.129-0.186-2.966-0.857   c-1.737-1.392-2.018-3.938-0.625-5.675L62.623,26.433z M31.326,39.26c1.889-1.679,3.987-2.967,6.225-3.825   c2.279-0.838,4.796-1.264,7.477-1.264c2.729,0,5.25,0.461,7.534,1.322l-6.81,8.496H27.533   C28.451,42.294,29.698,40.719,31.326,39.26z M14.44,51.691v-0.656c0-2.259,1.839-4.097,4.098-4.097h25.021   c-1.299,2.569-0.673,5.791,1.66,7.661c0.828,0.664,1.777,1.073,2.754,1.253H18.332l-0.763-0.188   C15.727,55.211,14.44,53.578,14.44,51.691z M77.479,91.013c-0.062,0.543-0.695,1.038-1.329,1.038H23.851   c-0.635,0-1.268-0.495-1.33-1.038l-3.855-34.231h62.668L77.479,91.013z M85.56,51.691c0,1.887-1.287,3.52-3.13,3.973l-0.763,0.188   h-31.43c1.419-0.261,2.755-1.004,3.726-2.216l5.369-6.698h22.13c2.259,0,4.097,1.838,4.097,4.097V51.691z" fill="#04A118"></path><path d="M32.326,87.517c1.988,0,3.605-1.617,3.605-3.605V67.169c0-1.988-1.617-3.605-3.605-3.605s-3.605,1.617-3.605,3.605v16.744   C28.721,85.9,30.338,87.517,32.326,87.517z" fill="#04A118"></path><path d="M44.109,87.517c1.988,0,3.605-1.617,3.605-3.605V67.169c0-1.988-1.617-3.605-3.605-3.605s-3.605,1.617-3.605,3.605v16.744   C40.504,85.9,42.121,87.517,44.109,87.517z" fill="#04A118"></path><path d="M55.891,87.517c1.988,0,3.605-1.617,3.605-3.605V67.169c0-1.988-1.617-3.605-3.605-3.605s-3.605,1.617-3.605,3.605v16.744   C52.286,85.9,53.903,87.517,55.891,87.517z" fill="#04A118"></path><path d="M67.674,87.517c1.988,0,3.605-1.617,3.605-3.605V67.169c0-1.988-1.617-3.605-3.605-3.605s-3.605,1.617-3.605,3.605v16.744   C64.07,85.9,65.687,87.517,67.674,87.517z" fill="#04A118"></path><circle cx="49.399" cy="49.465" r="1.619" fill="#04A118"></circle></g></g><g id="SvgjsG1016" featurekey="nameFeature-0" transform="matrix(0.9944864394696518,0,0,0.9944864394696518,119.41703228742503,32.676152712606836)" fill="url(&quot;#SvgjsLinearGradient1019&quot;)"><path d="M21.602 11.777000000000001 l6.2305 0 l-10.43 28.223 l-6.4453 0 l-10.371 -28.223 l6.2109 0 l7.4023 21.387 z M49.399882812499996 16.934 l-10.469 0 l0 6.4063 l9.2773 0 l0 5.0977 l-9.2773 0 l0 6.3867 l10.469 0 l0 5.1758 l-16.367 0 l0 -28.223 l16.367 0 l0 5.1563 z M68.603140625 40.39063 c-8.1445 0 -14.141 -5.625 -14.141 -14.434 c0 -8.9258 6.1328 -14.57 14.434 -14.57 c5.4492 0 9.9609 2.4023 12.422 6.6406 l-5.1367 2.7344 c-1.4844 -2.8906 -4.1406 -4.2773 -7.2852 -4.2773 c-4.8828 0 -8.5547 3.3594 -8.5547 9.3359 c0 5.7617 3.4375 9.4727 8.7695 9.4727 c3.6133 0 6.9336 -1.7969 7.7344 -5.918 l-7.7148 0 l0 -4.707 l13.262 0 l0 15.332 l-4.6094 0 l0 -3.9063 c-1.8164 2.6758 -4.8633 4.2969 -9.1797 4.2969 z M105.7963671875 16.934 l-10.469 0 l0 6.4063 l9.2773 0 l0 5.0977 l-9.2773 0 l0 6.3867 l10.469 0 l0 5.1758 l-16.367 0 l0 -28.223 l16.367 0 l0 5.1563 z M129.433625 16.934 l-10.742 0 l0 6.4063 l9.2773 0 l0 5.0977 l-9.2773 0 l0 11.563 l-5.8984 0 l0 -28.223 l16.641 0 l0 5.1563 z M147.8951640625 40.39063 c-8.3008 0 -14.434 -5.6641 -14.434 -14.512 c0 -8.8672 6.1328 -14.492 14.434 -14.492 c8.2813 0 14.414 5.625 14.414 14.492 c0 8.8477 -6.1328 14.512 -14.414 14.512 z M147.8951640625 35.0195 c4.8633 0 8.5938 -3.418 8.5938 -9.1406 c0 -5.7031 -3.7305 -9.1016 -8.5938 -9.1016 s-8.5938 3.3984 -8.5938 9.1016 c0 5.7227 3.7305 9.1406 8.5938 9.1406 z M181.161765625 40.39063 c-8.3008 0 -14.434 -5.6641 -14.434 -14.512 c0 -8.8672 6.1328 -14.492 14.434 -14.492 c8.2813 0 14.414 5.625 14.414 14.492 c0 8.8477 -6.1328 14.512 -14.414 14.512 z M181.161765625 35.0195 c4.8633 0 8.5938 -3.418 8.5938 -9.1406 c0 -5.7031 -3.7305 -9.1016 -8.5938 -9.1016 s-8.5938 3.3984 -8.5938 9.1016 c0 5.7227 3.7305 9.1406 8.5938 9.1406 z M201.9286671875 40 l0 -28.223 l10.215 0 c9.0039 0 13.457 5.6641 13.457 14.102 c0 8.457 -4.4531 14.121 -13.457 14.121 l-10.215 0 z M207.7880671875 34.8242 l4.0625 0 c5.1953 0 7.5781 -3.2422 7.5781 -8.9453 s-2.3828 -8.9453 -7.5781 -8.9453 l-4.0625 0 l0 17.891 z M241.4254375 40.39063 c-6.0547 0 -10.781 -2.9102 -11.641 -8.2031 l6.0547 -1.3867 c0.39063 3.1641 2.7148 4.8047 5.8203 4.8047 c2.3828 0 4.2773 -1.0547 4.2578 -3.4375 c-0.019531 -2.6563 -3.1445 -3.4961 -6.582 -4.5508 c-4.1406 -1.2891 -8.5742 -2.8125 -8.5742 -8.0078 c0 -5.2539 4.2969 -8.2227 9.9609 -8.2227 c4.9609 0 9.9609 2.0117 11.094 7.4219 l-5.6641 1.4063 c-0.52734 -2.8125 -2.4219 -4.043 -5.0781 -4.043 c-2.3633 0 -4.375 0.97656 -4.375 3.3008 c0 2.168 2.7734 2.8906 5.9766 3.8477 c4.2578 1.2891 9.2969 2.9297 9.2969 8.5547 c0 5.9961 -5.0195 8.5156 -10.547 8.5156 z" fill="url(&quot;#SvgjsLinearGradient1019&quot;)"></path></g></svg>